# xmcd CD database file
#
# Track frame offsets:
#	150
#	16259
#	30822
#	41846
#	54261
#	66941
#	79375
#	88539
#	106298
#	117515
#	129686
#	148358
#	161892
#	175398
#	191170
#
# Disc length: 2675 seconds
#
# Revision: 0
# Processed by: cddbd v1.5.2PL0 Copyright (c) Steve Scherf et al.
# Submitted via: CDex 1.70beta2
#
DISCID=d60a710f
DTITLE=Rod Stewart - The Original Face
DYEAR=1900
DGENRE=Blues
TTITLE0=I Just Got Some
TTITLE1=Bright Lights, Big City
TTITLE2=Ain't That Lovin You Baby
TTITLE3=Moppers Blues
TTITLE4=Why Does It Go On
TTITLE5=Shake
TTITLE6=Keep Your Hands Off Her
TTITLE7=Don't You Tell Nobody
TTITLE8=Just Like I Treat You
TTITLE9=Day Will Come
TTITLE10=Just A Little Misunderstood
TTITLE11=Baby Come Home
TTITLE12=Sparky Rides
TTITLE13=Can I Get A Witness
TTITLE14=Baby Take Me
EXTD=
EXTT0=
EXTT1=
EXTT2=
EXTT3=
EXTT4=
EXTT5=
EXTT6=
EXTT7=
EXTT8=
EXTT9=
EXTT10=
EXTT11=
EXTT12=
EXTT13=
EXTT14=
PLAYORDER=
